<svg xmlns="http://www.w3.org/2000/svg" width="1200" height="590" viewBox="0 0 1200 590" role="img" aria-labelledby="title desc">
<title id="title">Spotlight architecture</title><desc id="desc">Four equal architecture stages with generous arrow gaps and readable labels.</desc><defs>
<linearGradient id="bg" x1="0" y1="0" x2="1" y2="1"><stop offset="0" stop-color="#070b11"/><stop offset="1" stop-color="#0c1320"/></linearGradient>
<linearGradient id="accent" x1="0" y1="0" x2="1" y2="0"><stop offset="0" stop-color="#55d6ff"/><stop offset="1" stop-color="#a78bfa"/></linearGradient>
<linearGradient id="panel" x1="0" y1="0" x2="0" y2="1"><stop offset="0" stop-color="#121a26"/><stop offset="1" stop-color="#0c131d"/></linearGradient>
<marker id="arrow" markerWidth="8" markerHeight="8" refX="6.5" refY="4" orient="auto"><path d="M0 0 L7 4 L0 8 Z" fill="#7c8ba0"/></marker>
<marker id="cyanArrow" markerWidth="8" markerHeight="8" refX="6.5" refY="4" orient="auto"><path d="M0 0 L7 4 L0 8 Z" fill="#55d6ff"/></marker>
<marker id="purpleArrow" markerWidth="8" markerHeight="8" refX="6.5" refY="4" orient="auto"><path d="M0 0 L7 4 L0 8 Z" fill="#a78bfa"/></marker>
</defs>
<rect width="1200" height="590" rx="30" fill="url(#bg)"/><rect x="1" y="1" width="1198" height="588" rx="29" fill="none" stroke="#223044"/><text x="48" y="44" fill="#55d6ff" font-family="ui-monospace,SFMono-Regular,Menlo,Consolas,monospace" font-size="16" font-weight="700" letter-spacing="2.2">FRAMEWORK-AGNOSTIC AGENT RUNTIME</text>
<text x="48" y="96" fill="#f8fafc" font-family="-apple-system,BlinkMacSystemFont,'Segoe UI','Helvetica Neue',Arial,sans-serif" font-size="40" font-weight="800">Spotlight architecture</text>
<text x="48" y="130" fill="#93a2b7" font-family="-apple-system,BlinkMacSystemFont,'Segoe UI','Helvetica Neue',Arial,sans-serif" font-size="18">One command surface over the real capabilities your frontend already owns.</text><g transform="translate(48 174)"><rect width="242" height="320" rx="20" fill="url(#panel)" stroke="#314158"/><circle cx="28" cy="32" r="15" fill="#0c1824" stroke="#55d6ff" stroke-width="2"/><text x="28" y="38" text-anchor="middle" fill="#55d6ff" font-family="ui-monospace,SFMono-Regular,Menlo,Consolas,monospace" font-size="17" font-weight="700">1</text><text x="55" y="39" fill="#f8fafc" font-family="-apple-system,BlinkMacSystemFont,'Segoe UI','Helvetica Neue',Arial,sans-serif" font-size="20" font-weight="750">User intent</text>
<rect x="22" y="82" width="198" height="160" rx="18" fill="#0b1119" stroke="#26364b"/><path d="M75 116h92a14 14 0 0 1 14 14v38a14 14 0 0 1-14 14h-42l-24 20v-20H75a14 14 0 0 1-14-14v-38a14 14 0 0 1 14-14Z" fill="none" stroke="url(#accent)" stroke-width="3"/><circle cx="104" cy="150" r="4" fill="#55d6ff"/><circle cx="122" cy="150" r="4" fill="#7b9cff"/><circle cx="140" cy="150" r="4" fill="#a78bfa"/><text x="121" y="282" text-anchor="middle" fill="#d7e0ea" font-family="-apple-system,BlinkMacSystemFont,'Segoe UI','Helvetica Neue',Arial,sans-serif" font-size="18">Natural-language</text><text x="121" y="306" text-anchor="middle" fill="#d7e0ea" font-family="-apple-system,BlinkMacSystemFont,'Segoe UI','Helvetica Neue',Arial,sans-serif" font-size="18">request</text></g><g transform="translate(333 174)"><rect width="242" height="320" rx="20" fill="url(#panel)" stroke="#314158"/><circle cx="28" cy="32" r="15" fill="#0c1824" stroke="#55d6ff" stroke-width="2"/><text x="28" y="38" text-anchor="middle" fill="#55d6ff" font-family="ui-monospace,SFMono-Regular,Menlo,Consolas,monospace" font-size="17" font-weight="700">2</text><text x="55" y="39" fill="#f8fafc" font-family="-apple-system,BlinkMacSystemFont,'Segoe UI','Helvetica Neue',Arial,sans-serif" font-size="19" font-weight="750">Frontend product</text>
<g transform="translate(18 78)"><rect width="206" height="58" rx="12" fill="#0b1119" stroke="#26364b"/><text x="54" y="36" fill="#d7e0ea" font-family="-apple-system,BlinkMacSystemFont,'Segoe UI','Helvetica Neue',Arial,sans-serif" font-size="18">UI / Components</text><rect x="16" y="18" width="24" height="20" rx="3" fill="none" stroke="#55d6ff" stroke-width="2"/><path d="M16 25h24M25 18v20" stroke="#55d6ff" stroke-width="2"/>
<rect y="70" width="206" height="58" rx="12" fill="#0b1119" stroke="#26364b"/><text x="54" y="106" fill="#d7e0ea" font-family="-apple-system,BlinkMacSystemFont,'Segoe UI','Helvetica Neue',Arial,sans-serif" font-size="18">Capabilities</text><path d="M24 88h9v-8h8v8h9v8h-9v9h-8v-9h-9Z" fill="none" stroke="#7b9cff" stroke-width="2"/>
<rect y="140" width="206" height="90" rx="12" fill="#0b1119" stroke="#26364b"/><ellipse cx="30" cy="164" rx="12" ry="5" fill="none" stroke="#a78bfa" stroke-width="2"/><path d="M18 164v14c0 3 5 5 12 5s12-2 12-5v-14" fill="none" stroke="#a78bfa" stroke-width="2"/><text x="54" y="167" fill="#d7e0ea" font-family="-apple-system,BlinkMacSystemFont,'Segoe UI','Helvetica Neue',Arial,sans-serif" font-size="17">Router · Store</text><text x="54" y="193" fill="#d7e0ea" font-family="-apple-system,BlinkMacSystemFont,'Segoe UI','Helvetica Neue',Arial,sans-serif" font-size="17">Service · SDK</text></g></g><g transform="translate(618 174)"><rect width="242" height="320" rx="20" fill="url(#panel)" stroke="#314158"/><circle cx="28" cy="32" r="15" fill="#0c1824" stroke="#7b9cff" stroke-width="2"/><text x="28" y="38" text-anchor="middle" fill="#7b9cff" font-family="ui-monospace,SFMono-Regular,Menlo,Consolas,monospace" font-size="17" font-weight="700">3</text><text x="55" y="39" fill="#f8fafc" font-family="-apple-system,BlinkMacSystemFont,'Segoe UI','Helvetica Neue',Arial,sans-serif" font-size="19" font-weight="750">Capability layer</text>
<rect x="18" y="82" width="206" height="190" rx="18" fill="#0c1420" stroke="url(#accent)" stroke-width="1.7"/><circle cx="121" cy="131" r="25" fill="#0b1119" stroke="#55d6ff"/><path d="M108 140l29-29M131 108l9 9M103 145l9 9" stroke="url(#accent)" stroke-width="4" stroke-linecap="round"/><text x="121" y="192" text-anchor="middle" fill="#f8fafc" font-family="-apple-system,BlinkMacSystemFont,'Segoe UI','Helvetica Neue',Arial,sans-serif" font-size="20" font-weight="750">Typed Client Tools</text><text x="121" y="225" text-anchor="middle" fill="#8fa0b5" font-family="-apple-system,BlinkMacSystemFont,'Segoe UI','Helvetica Neue',Arial,sans-serif" font-size="18">thin adapters over</text><text x="121" y="249" text-anchor="middle" fill="#8fa0b5" font-family="-apple-system,BlinkMacSystemFont,'Segoe UI','Helvetica Neue',Arial,sans-serif" font-size="18">real capabilities</text></g><g transform="translate(903 174)"><rect width="242" height="320" rx="20" fill="url(#panel)" stroke="url(#accent)" stroke-width="1.7"/><circle cx="28" cy="32" r="15" fill="#0c1824" stroke="#a78bfa" stroke-width="2"/><text x="28" y="38" text-anchor="middle" fill="#a78bfa" font-family="ui-monospace,SFMono-Regular,Menlo,Consolas,monospace" font-size="17" font-weight="700">4</text><text x="55" y="39" fill="#f8fafc" font-family="-apple-system,BlinkMacSystemFont,'Segoe UI','Helvetica Neue',Arial,sans-serif" font-size="19" font-weight="750">Runtime</text>
<g transform="translate(16 72)"><rect width="210" height="40" rx="10" fill="#0b1119" stroke="#26364b"/><text x="105" y="26" text-anchor="middle" fill="#d7e0ea" font-family="-apple-system,BlinkMacSystemFont,'Segoe UI','Helvetica Neue',Arial,sans-serif" font-size="17">Skills</text><rect y="50" width="210" height="40" rx="10" fill="#0b1119" stroke="#26364b"/><text x="105" y="76" text-anchor="middle" fill="#d7e0ea" font-family="-apple-system,BlinkMacSystemFont,'Segoe UI','Helvetica Neue',Arial,sans-serif" font-size="17">Route &amp; plan</text><rect y="100" width="210" height="40" rx="10" fill="#0b1119" stroke="#26364b"/><text x="105" y="126" text-anchor="middle" fill="#d7e0ea" font-family="-apple-system,BlinkMacSystemFont,'Segoe UI','Helvetica Neue',Arial,sans-serif" font-size="17">Run Engine</text><rect y="150" width="210" height="40" rx="10" fill="#0b1119" stroke="#26364b"/><text x="105" y="176" text-anchor="middle" fill="#d7e0ea" font-family="-apple-system,BlinkMacSystemFont,'Segoe UI','Helvetica Neue',Arial,sans-serif" font-size="16">Knowledge · Memory</text><rect y="200" width="210" height="40" rx="10" fill="#0b1119" stroke="#26364b"/><text x="105" y="226" text-anchor="middle" fill="#d7e0ea" font-family="-apple-system,BlinkMacSystemFont,'Segoe UI','Helvetica Neue',Arial,sans-serif" font-size="16">Models / Providers</text></g></g><path d="M297 334 H326" stroke="#7c8ba0" stroke-width="2.5" marker-end="url(#arrow)"/><path d="M582 334 H611" stroke="#7c8ba0" stroke-width="2.5" marker-end="url(#arrow)"/><path d="M867 334 H896" stroke="#7c8ba0" stroke-width="2.5" marker-end="url(#arrow)"/><rect x="48" y="526" width="1104" height="44" rx="15" fill="#0b1119" stroke="#243246"/>
<text x="600" y="554" text-anchor="middle" fill="#9ba9bb" font-family="-apple-system,BlinkMacSystemFont,'Segoe UI','Helvetica Neue',Arial,sans-serif" font-size="18">Keep the product as the source of truth. Spotlight coordinates intent around real capabilities.</text></svg>