<svg xmlns="http://www.w3.org/2000/svg" width="1200" height="570" viewBox="0 0 1200 570" role="img" aria-labelledby="title desc">
<title id="title">Capability path versus DOM automation</title><desc id="desc">A symmetric comparison between Spotlight capability execution and fragile DOM automation.</desc>
<defs>
    <linearGradient id="bg" x1="0" y1="0" x2="1" y2="1"><stop offset="0" stop-color="#070b11"/><stop offset="1" stop-color="#0c1320"/></linearGradient>
    <linearGradient id="accent" x1="0" y1="0" x2="1" y2="0"><stop offset="0" stop-color="#55d6ff"/><stop offset="1" stop-color="#a78bfa"/></linearGradient>
    <linearGradient id="panel" x1="0" y1="0" x2="0" y2="1"><stop offset="0" stop-color="#121a26"/><stop offset="1" stop-color="#0c131d"/></linearGradient>
    <marker id="arrow" markerWidth="8" markerHeight="8" refX="7" refY="4" orient="auto"><path d="M0 0 L8 4 L0 8 Z" fill="#7c8ba0"/></marker>
  </defs>
<rect width="1200" height="570" rx="30" fill="url(#bg)"/><rect x="1" y="1" width="1198" height="568" rx="29" fill="none" stroke="#223044"/>
<text x="48" y="44" fill="#55d6ff" font-family="ui-monospace,SFMono-Regular,Menlo,Consolas,monospace" font-size="16" font-weight="700" letter-spacing="2.2">RELIABLE EXECUTION MODEL</text>
  <text x="48" y="94" fill="#f8fafc" font-family="-apple-system,BlinkMacSystemFont,Segoe UI,Helvetica Neue,Arial,sans-serif" font-size="40" font-weight="800">Capability path vs DOM automation</text>
  <text x="48" y="126" fill="#93a2b7" font-family="-apple-system,BlinkMacSystemFont,Segoe UI,Helvetica Neue,Arial,sans-serif" font-size="18">Explicit capability contracts beat brittle page manipulation.</text>
<g transform="translate(48 162)"><rect width="532" height="310" rx="20" fill="url(#panel)" stroke="#55d6ff" stroke-opacity=".75"/><circle cx="28" cy="30" r="14" fill="#0b1119" stroke="#55d6ff" stroke-width="2"/><path d="M21 30l5 5 10-12" fill="none" stroke="#55d6ff" stroke-width="2.5" stroke-linecap="round" stroke-linejoin="round"/><text x="54" y="36" fill="#55d6ff" font-family="-apple-system,BlinkMacSystemFont,Segoe UI,Helvetica Neue,Arial,sans-serif" font-size="20" font-weight="750">Recommended path</text><g transform="translate(24 72)"><rect width="104" height="132" rx="14" fill="#0b1119" stroke="#55d6ff" stroke-opacity=".7"/><path d="M30 24h44a10 10 0 0 1 10 10v20a10 10 0 0 1-10 10H56L42 75V64H30a10 10 0 0 1-10-10V34a10 10 0 0 1 10-10Z" fill="none" stroke="#55d6ff" stroke-width="2.5"/><text x="52" y="101" text-anchor="middle" fill="#d7e0ea" font-family="-apple-system,BlinkMacSystemFont,Segoe UI,Helvetica Neue,Arial,sans-serif" font-size="13">User intent</text></g><path d="M132 138 H142" stroke="#7c8ba0" stroke-width="2.3" marker-end="url(#arrow)"/><g transform="translate(150 72)"><rect width="104" height="132" rx="14" fill="#0b1119" stroke="#55d6ff" stroke-opacity=".7"/><path d="M38 24h28v10h10v28H66v10H38V62H28V34h10Z" fill="none" stroke="#55d6ff" stroke-width="2.5"/><text x="52" y="101" text-anchor="middle" fill="#d7e0ea" font-family="-apple-system,BlinkMacSystemFont,Segoe UI,Helvetica Neue,Arial,sans-serif" font-size="13">Skill</text></g><path d="M258 138 H268" stroke="#7c8ba0" stroke-width="2.3" marker-end="url(#arrow)"/><g transform="translate(276 72)"><rect width="104" height="132" rx="14" fill="#0b1119" stroke="#55d6ff" stroke-opacity=".7"/><path d="M38 66l28-28M60 33l10 10M34 70l10 10" stroke="#55d6ff" stroke-width="3.2" stroke-linecap="round"/><text x="52" y="96" text-anchor="middle" fill="#d7e0ea" font-family="-apple-system,BlinkMacSystemFont,Segoe UI,Helvetica Neue,Arial,sans-serif" font-size="13">Typed Client</text><text x="52" y="114" text-anchor="middle" fill="#d7e0ea" font-family="-apple-system,BlinkMacSystemFont,Segoe UI,Helvetica Neue,Arial,sans-serif" font-size="13">Tool</text></g><path d="M384 138 H394" stroke="#7c8ba0" stroke-width="2.3" marker-end="url(#arrow)"/><g transform="translate(402 72)"><rect width="104" height="132" rx="14" fill="#0b1119" stroke="#55d6ff" stroke-opacity=".7"/><ellipse cx="52" cy="36" rx="18" ry="7" fill="none" stroke="#55d6ff" stroke-width="2.5"/><path d="M34 36v28c0 4 8 7 18 7s18-3 18-7V36M34 49c0 4 8 7 18 7s18-3 18-7" fill="none" stroke="#55d6ff" stroke-width="2.5"/><text x="52" y="96" text-anchor="middle" fill="#d7e0ea" font-family="-apple-system,BlinkMacSystemFont,Segoe UI,Helvetica Neue,Arial,sans-serif" font-size="13">Existing</text><text x="52" y="114" text-anchor="middle" fill="#d7e0ea" font-family="-apple-system,BlinkMacSystemFont,Segoe UI,Helvetica Neue,Arial,sans-serif" font-size="13">business API</text></g><rect x="24" y="230" width="152" height="42" rx="21" fill="#0b1119" stroke="#55d6ff" stroke-opacity=".75"/><text x="100" y="256" text-anchor="middle" fill="#55d6ff" font-family="ui-monospace,SFMono-Regular,Menlo,Consolas,monospace" font-size="12.5">stable</text><rect x="188" y="230" width="152" height="42" rx="21" fill="#0b1119" stroke="#55d6ff" stroke-opacity=".75"/><text x="264" y="256" text-anchor="middle" fill="#55d6ff" font-family="ui-monospace,SFMono-Regular,Menlo,Consolas,monospace" font-size="12.5">verifiable</text><rect x="352" y="230" width="152" height="42" rx="21" fill="#0b1119" stroke="#55d6ff" stroke-opacity=".75"/><text x="428" y="256" text-anchor="middle" fill="#55d6ff" font-family="ui-monospace,SFMono-Regular,Menlo,Consolas,monospace" font-size="12.5">policy-aware</text></g>
<g transform="translate(620 162)"><rect width="532" height="310" rx="20" fill="url(#panel)" stroke="#fb7185" stroke-opacity=".75"/><path d="M28 17l15 26H13Z" fill="none" stroke="#fb7185" stroke-width="2.5"/><path d="M28 25v8M28 38v1" stroke="#fb7185" stroke-width="2.5" stroke-linecap="round"/><text x="54" y="36" fill="#fb7185" font-family="-apple-system,BlinkMacSystemFont,Segoe UI,Helvetica Neue,Arial,sans-serif" font-size="20" font-weight="750">Fragile path</text><g transform="translate(24 72)"><rect width="104" height="132" rx="14" fill="#0b1119" stroke="#fb7185" stroke-opacity=".7"/><path d="M30 24h44a10 10 0 0 1 10 10v20a10 10 0 0 1-10 10H56L42 75V64H30a10 10 0 0 1-10-10V34a10 10 0 0 1 10-10Z" fill="none" stroke="#fb7185" stroke-width="2.5"/><text x="52" y="101" text-anchor="middle" fill="#d7e0ea" font-family="-apple-system,BlinkMacSystemFont,Segoe UI,Helvetica Neue,Arial,sans-serif" font-size="13">User intent</text></g><path d="M132 138 H142" stroke="#7c8ba0" stroke-width="2.3" marker-end="url(#arrow)"/><g transform="translate(150 72)"><rect width="104" height="132" rx="14" fill="#0b1119" stroke="#fb7185" stroke-opacity=".7"/><rect x="27" y="28" width="50" height="40" rx="8" fill="none" stroke="#fb7185" stroke-width="2.5" stroke-dasharray="6 5"/><path d="M41 40l-9 8 9 8M63 40l9 8-9 8" fill="none" stroke="#fb7185" stroke-width="2"/><text x="52" y="96" text-anchor="middle" fill="#d7e0ea" font-family="-apple-system,BlinkMacSystemFont,Segoe UI,Helvetica Neue,Arial,sans-serif" font-size="13">Selector /</text><text x="52" y="114" text-anchor="middle" fill="#d7e0ea" font-family="-apple-system,BlinkMacSystemFont,Segoe UI,Helvetica Neue,Arial,sans-serif" font-size="13">DOM guess</text></g><path d="M258 138 H268" stroke="#7c8ba0" stroke-width="2.3" marker-end="url(#arrow)"/><g transform="translate(276 72)"><rect width="104" height="132" rx="14" fill="#0b1119" stroke="#fb7185" stroke-opacity=".7"/><path d="M35 30l23 18-12 3 6 14-8 3-6-14-8 8Z" fill="none" stroke="#fb7185" stroke-width="2.5" stroke-linejoin="round"/><path d="M64 27l3-8M72 33l8-3M70 22l6-6" stroke="#fb7185" stroke-width="2" stroke-linecap="round"/><text x="52" y="96" text-anchor="middle" fill="#d7e0ea" font-family="-apple-system,BlinkMacSystemFont,Segoe UI,Helvetica Neue,Arial,sans-serif" font-size="13">Simulated</text><text x="52" y="114" text-anchor="middle" fill="#d7e0ea" font-family="-apple-system,BlinkMacSystemFont,Segoe UI,Helvetica Neue,Arial,sans-serif" font-size="13">click</text></g><path d="M384 138 H394" stroke="#7c8ba0" stroke-width="2.3" marker-end="url(#arrow)"/><g transform="translate(402 72)"><rect width="104" height="132" rx="14" fill="#0b1119" stroke="#fb7185" stroke-opacity=".7"/><rect x="29" y="29" width="46" height="38" rx="5" fill="none" stroke="#fb7185" stroke-width="2.5"/><path d="M29 40h46M41 29v11" stroke="#fb7185" stroke-width="2"/><text x="52" y="96" text-anchor="middle" fill="#d7e0ea" font-family="-apple-system,BlinkMacSystemFont,Segoe UI,Helvetica Neue,Arial,sans-serif" font-size="13">Current DOM</text><text x="52" y="114" text-anchor="middle" fill="#d7e0ea" font-family="-apple-system,BlinkMacSystemFont,Segoe UI,Helvetica Neue,Arial,sans-serif" font-size="13">structure</text></g><rect x="24" y="230" width="152" height="42" rx="21" fill="#0b1119" stroke="#fb7185" stroke-opacity=".75"/><text x="100" y="256" text-anchor="middle" fill="#fb7185" font-family="ui-monospace,SFMono-Regular,Menlo,Consolas,monospace" font-size="12.5">layout-coupled</text><rect x="188" y="230" width="152" height="42" rx="21" fill="#0b1119" stroke="#fb7185" stroke-opacity=".75"/><text x="264" y="256" text-anchor="middle" fill="#fb7185" font-family="ui-monospace,SFMono-Regular,Menlo,Consolas,monospace" font-size="12.5">brittle</text><rect x="352" y="230" width="152" height="42" rx="21" fill="#0b1119" stroke="#fb7185" stroke-opacity=".75"/><text x="428" y="256" text-anchor="middle" fill="#fb7185" font-family="ui-monospace,SFMono-Regular,Menlo,Consolas,monospace" font-size="12.5">hard to govern</text></g>
<rect x="48" y="500" width="1104" height="44" rx="15" fill="#0b1119" stroke="#243246"/><text x="600" y="528" text-anchor="middle" fill="#9ba9bb" font-family="-apple-system,BlinkMacSystemFont,Segoe UI,Helvetica Neue,Arial,sans-serif" font-size="16">Spotlight follows the capability path: explicit contracts over brittle page manipulation.</text>
</svg>